# xmcd
#
# Track frame offsets: 
#        150
#        20702
#        39582
#        62737
#        86245
#        110297
#        128257
#        146837
#        173587
#        199287
#        229632
#        255022
#
# Disc length: 3720 seconds
#
# Revision: 0
# Processed by: cddbd v1.5.1PL2 Copyright (c) Steve Scherf et al.
# Submitted via: ExactAudioCopy v0.95b2
#
DISCID=990e860c
DTITLE=Darrell Scott - Theatre Of The Unheard
DYEAR=2003
DGENRE=Country
TTITLE0=East of Gary
TTITLE1=Uncle Lloyd
TTITLE2=Day After Day
TTITLE3=6 O'clock in the Morning
TTITLE4=Miracle of Living
TTITLE5=Full Light
TTITLE6=I Wanna Be Free
TTITLE7=River Take Me
TTITLE8=Alton Air
TTITLE9=The Man Who Could Have Played Bass for Shanana
TTITLE10=After All
TTITLE11=10,000 Miles Away
EXTD=
EXTT0=
EXTT1=
EXTT2=
EXTT3=
EXTT4=
EXTT5=
EXTT6=
EXTT7=
EXTT8=
EXTT9=
EXTT10=
EXTT11=
PLAYORDER=
